<svg xmlns="http://www.w3.org/2000/svg" xmlns:xlink="http://www.w3.org/1999/xlink" viewBox="0,0,256,256" width="400px" height="400px" fill-rule="nonzero"><g fill="#ffffff" fill-rule="nonzero" stroke="none" stroke-width="1" stroke-linecap="butt" stroke-linejoin="miter" stroke-miterlimit="10" stroke-dasharray="" stroke-dashoffset="0" font-family="none" font-weight="none" font-size="none" text-anchor="none" style="mix-blend-mode: normal"><g transform="scale(2.56,2.56)"><path d="M16.89453,14c-0.28048,0.00004 -0.54806,0.11786 -0.73747,0.32473c-0.18941,0.20687 -0.28325,0.48376 -0.25863,0.76316l5.8418,66.21094c0.03684,0.41259 0.32421,0.75977 0.72266,0.87305l27.26172,7.78906c0.17998,0.05155 0.37081,0.05155 0.55078,0l27.26172,-7.78906c0.39844,-0.11327 0.68582,-0.46045 0.72266,-0.87305l5.8418,-66.21094c0.02462,-0.2794 -0.06922,-0.5563 -0.25863,-0.76316c-0.18941,-0.20687 -0.45698,-0.32469 -0.73747,-0.32473zM17.98633,16h64.02734l-5.68555,64.4375l-26.32812,7.52344l-26.32812,-7.52344zM50,20c-0.27613,0.00003 -0.49997,0.22387 -0.5,0.5v9.58008h-17.41602c-0.13895,0.00017 -0.27156,0.05816 -0.36604,0.16005c-0.09448,0.10189 -0.1423,0.23849 -0.132,0.37706l0.58398,7.78906c0.01943,0.26079 0.23653,0.46257 0.49805,0.46289h17.33203h9.00195l-0.50781,6.78906h-7.99414v-4.29102c0.00158,-0.13498 -0.05147,-0.26487 -0.14711,-0.36014c-0.09564,-0.09527 -0.22573,-0.14782 -0.3607,-0.14572c-0.27537,0.00431 -0.49542,0.23047 -0.49219,0.50586v4.29102h-8.45703c-0.13712,-0.00016 -0.2683,0.05599 -0.36283,0.15532c-0.09453,0.09933 -0.14412,0.23312 -0.13717,0.37007l0.39063,7.78906c0.01352,0.26542 0.23229,0.47389 0.49805,0.47461h8.56836h8.0332l-0.52539,7.89648l-7.00781,2.39453v-7.79102c0.00212,-0.13532 -0.0507,-0.26572 -0.1464,-0.36141c-0.0957,-0.0957 -0.22609,-0.14852 -0.36141,-0.1464c-0.13261,0.00207 -0.25897,0.05673 -0.35127,0.15197c-0.0923,0.09523 -0.14299,0.22324 -0.14092,0.35585v7.79102l-6.99805,-2.39062l-0.18164,-4.52539c-0.01052,-0.26848 -0.23132,-0.48065 -0.5,-0.48047h-7.78906c-0.13714,0.00034 -0.26812,0.057 -0.36229,0.1567c-0.09416,0.0997 -0.14325,0.2337 -0.13576,0.37064l0.58398,10.71094c0.01123,0.20515 0.1468,0.38255 0.3418,0.44727l15.38477,5.06445c0.10149,0.03338 0.21101,0.03338 0.3125,0l15.38477,-5.0625c0.19436,-0.06445 0.32979,-0.24089 0.3418,-0.44531l1.36328,-22.39453l0.97461,-15.57812c0.00862,-0.13793 -0.04022,-0.27328 -0.13494,-0.37392c-0.09472,-0.10064 -0.22686,-0.15759 -0.36506,-0.15733h-17.2207v-9.08008h3c0.18032,0.00255 0.34804,-0.09219 0.43894,-0.24794c0.0909,-0.15575 0.0909,-0.34838 0,-0.50413c-0.0909,-0.15575 -0.25863,-0.25049 -0.43894,-0.24794zM56.5,20c-0.18032,-0.00255 -0.34804,0.09219 -0.43894,0.24794c-0.0909,0.15575 -0.0909,0.34838 0,0.50413c0.0909,0.15575 0.25863,0.25049 0.43894,0.24794h4c0.18032,0.00255 0.34804,-0.09219 0.43894,-0.24794c0.0909,-0.15575 0.0909,-0.34838 0,-0.50413c-0.0909,-0.15575 -0.25863,-0.25049 -0.43894,-0.24794zM63.5,20c-0.18032,-0.00255 -0.34804,0.09219 -0.43894,0.24794c-0.0909,0.15575 -0.0909,0.34838 0,0.50413c0.0909,0.15575 0.25863,0.25049 0.43894,0.24794h12.66406l-4.82227,55.3457l-20.8418,5.95508v-5.80078c0.00255,-0.18032 -0.09219,-0.34804 -0.24794,-0.43894c-0.15575,-0.0909 -0.34838,-0.0909 -0.50413,0c-0.15575,0.0909 -0.25049,0.25863 -0.24794,0.43894v6.46289c0.00017,0.15669 0.07377,0.30423 0.19885,0.39861c0.12507,0.09438 0.28715,0.12468 0.43787,0.08185l21.8125,-6.23047c0.19877,-0.05744 0.34163,-0.23136 0.35938,-0.4375l4.89844,-56.23242c0.01202,-0.13954 -0.03503,-0.27772 -0.1297,-0.38094c-0.09467,-0.10321 -0.22829,-0.16199 -0.36835,-0.16203zM32.62305,31.08008h17.31055c0.04536,0.00626 0.09136,0.00626 0.13672,0h17.11914l-0.94141,15.04688c0,0.00065 0,0.0013 0,0.00195l-1.3418,22.05664l-14.90625,4.9043l-14.9043,-4.9043l-0.53516,-9.84375h6.7793l0.17578,4.38867c0.00827,0.20632 0.14251,0.38633 0.33789,0.45313l7.9043,2.69727c0.15204,0.08426 0.33692,0.08352 0.48828,-0.00195l7.90039,-2.69531c0.19018,-0.06558 0.32255,-0.23873 0.33594,-0.43945l0.58398,-8.76367c0.00916,-0.13792 -0.03917,-0.27348 -0.13352,-0.37449c-0.09435,-0.10101 -0.22631,-0.15846 -0.36453,-0.15871h-8.56836h-8.0918l-0.33984,-6.78906h8.35156c0.05368,0.00882 0.10843,0.00882 0.16211,0h8.875c0.26227,0.0007 0.48051,-0.20135 0.5,-0.46289l0.58398,-7.78906c0.0103,-0.13857 -0.03753,-0.27517 -0.132,-0.37706c-0.09448,-0.10189 -0.22709,-0.15987 -0.36604,-0.16005h-9.54297h-16.86719z"></path></g></g></svg>