<svg xmlns="http://www.w3.org/2000/svg" xmlns:xlink="http://www.w3.org/1999/xlink" viewBox="0,0,256,256" width="400px" height="400px" fill-rule="nonzero"><g fill="#ffffff" fill-rule="nonzero" stroke="none" stroke-width="1" stroke-linecap="butt" stroke-linejoin="miter" stroke-miterlimit="10" stroke-dasharray="" stroke-dashoffset="0" font-family="none" font-weight="none" font-size="none" text-anchor="none" style="mix-blend-mode: normal"><g transform="scale(2.56,2.56)"><path d="M16.89453,14c-0.28048,0.00004 -0.54806,0.11786 -0.73747,0.32473c-0.18941,0.20687 -0.28325,0.48376 -0.25863,0.76316l5.8418,66.21094c0.03684,0.41259 0.32421,0.75977 0.72266,0.87305l27.26172,7.78906c0.17998,0.05155 0.37081,0.05155 0.55078,0l27.26172,-7.78906c0.39844,-0.11327 0.68582,-0.46045 0.72266,-0.87305l5.8418,-66.21094c0.02462,-0.2794 -0.06922,-0.5563 -0.25863,-0.76316c-0.18941,-0.20687 -0.45698,-0.32469 -0.73747,-0.32473zM17.98633,16h64.02734l-5.68555,64.4375l-26.32812,7.52344l-26.32812,-7.52344zM50,20c-0.27613,0.00003 -0.49997,0.22387 -0.5,0.5v4c-0.00255,0.18032 0.09219,0.34804 0.24794,0.43894c0.15575,0.0909 0.34838,0.0909 0.50413,0c0.15575,-0.0909 0.25049,-0.25863 0.24794,-0.43894v-3.5h25.66406l-4.82227,55.3457l-3.90234,1.11523c-0.17909,0.04234 -0.32046,0.17963 -0.36802,0.35741c-0.04756,0.17778 0.00637,0.36731 0.1404,0.49342c0.13403,0.12611 0.3265,0.1684 0.50105,0.11011l4.23633,-1.20898c0.19877,-0.05744 0.34163,-0.23136 0.35938,-0.4375l4.89844,-56.23242c0.01202,-0.13954 -0.03503,-0.27772 -0.1297,-0.38094c-0.09467,-0.10321 -0.22829,-0.16199 -0.36835,-0.16203zM49.99219,26.99219c-0.13261,0.00207 -0.25896,0.05673 -0.35127,0.15197c-0.0923,0.09523 -0.14299,0.22324 -0.14092,0.35584v2.58008h-17.2207c-0.13784,-0.00022 -0.26966,0.05646 -0.36431,0.15666c-0.09465,0.1002 -0.14375,0.23503 -0.13569,0.37263l1.36328,23.36719c0.01556,0.26463 0.23492,0.47113 0.5,0.4707h16.35742h8.0332l-0.52539,7.89844l-7.00781,2.39258v-7.79102c0.00212,-0.13532 -0.0507,-0.26572 -0.1464,-0.36141c-0.0957,-0.0957 -0.22609,-0.14852 -0.36141,-0.1464c-0.13261,0.00207 -0.25897,0.05673 -0.35127,0.15197c-0.0923,0.09523 -0.14299,0.22324 -0.14092,0.35585v7.79102l-7.01367,-2.39453l-0.36133,-4.54102c-0.0204,-0.26002 -0.23723,-0.46069 -0.49805,-0.46094h-7.78906c-0.13929,-0.00037 -0.27242,0.05738 -0.36733,0.15933c-0.09491,0.10195 -0.14299,0.23887 -0.13267,0.37778l0.7793,10.71094c0.01508,0.2015 0.14994,0.37412 0.3418,0.4375l15.04102,4.95117v8.98438c0.00017,0.15669 0.07377,0.30423 0.19885,0.39861c0.12507,0.09438 0.28715,0.12468 0.43787,0.08185l9.44727,-2.69922c0.17909,-0.04234 0.32046,-0.17963 0.36801,-0.35741c0.04756,-0.17778 -0.00637,-0.36731 -0.1404,-0.49342c-0.13403,-0.12611 -0.32649,-0.1684 -0.50105,-0.11011l-8.81055,2.51758v-8.32227l15.04102,-4.95117c0.19373,-0.06419 0.32902,-0.23967 0.3418,-0.44336l1.36328,-22.39648c0.00806,-0.1376 -0.04103,-0.27243 -0.13569,-0.37263c-0.09465,-0.1002 -0.22647,-0.15689 -0.36431,-0.15666h-16.24609v-4.29102c0.00158,-0.13498 -0.05147,-0.26487 -0.14711,-0.36014c-0.09564,-0.09527 -0.22573,-0.14782 -0.3607,-0.14572c-0.27537,0.00431 -0.49542,0.23047 -0.49219,0.50586v4.29102h-7.99414l-0.50781,-6.78906h9.00195h17.33203c0.26152,-0.00032 0.47861,-0.2021 0.49805,-0.46289l0.58398,-7.78906c0.0103,-0.13857 -0.03753,-0.27517 -0.132,-0.37706c-0.09448,-0.10189 -0.22709,-0.15987 -0.36604,-0.16005h-17.41602v-2.58008c0.00212,-0.13532 -0.0507,-0.26572 -0.1464,-0.36141c-0.0957,-0.0957 -0.22609,-0.14852 -0.36141,-0.1464zM32.80859,31.08008h17.19141h17.37695l-0.50977,6.78906h-16.86719h-9.54297c-0.13895,0.00017 -0.27156,0.05816 -0.36604,0.16005c-0.09448,0.10189 -0.1423,0.23849 -0.132,0.37706l0.58398,7.78906c0.01949,0.26154 0.23773,0.46359 0.5,0.46289h8.87695c0.05368,0.00882 0.10843,0.00882 0.16211,0h16.13281l-1.30859,21.52539l-14.90625,4.90625l-14.91016,-4.90625l-0.71484,-9.8418h6.78906l0.35156,4.4082c0.01596,0.19903 0.1488,0.36948 0.33789,0.43359l7.91406,2.70313c0.14553,0.0764 0.31931,0.0764 0.46484,0l7.91406,-2.70312c0.19018,-0.06558 0.32255,-0.23873 0.33594,-0.43945l0.58398,-8.76367c0.00916,-0.13792 -0.03917,-0.27348 -0.13352,-0.37449c-0.09435,-0.10101 -0.22631,-0.15846 -0.36453,-0.15871h-8.56836h-15.88672zM64.52734,78.30859c-0.04504,0.00115 -0.08971,0.00837 -0.13281,0.02148l-1.99414,0.57031c-0.1791,0.04234 -0.32046,0.17963 -0.36802,0.35741c-0.04756,0.17778 0.00637,0.36732 0.1404,0.49342c0.13403,0.12611 0.3265,0.1684 0.50106,0.11011l1.99414,-0.57031c0.2434,-0.06633 0.39927,-0.30358 0.36353,-0.55331c-0.03575,-0.24973 -0.25192,-0.43373 -0.50415,-0.42911z"></path></g></g></svg>