<svg xmlns="http://www.w3.org/2000/svg" xmlns:xlink="http://www.w3.org/1999/xlink" viewBox="0,0,256,256" width="400px" height="400px" fill-rule="nonzero"><g fill="#ffffff" fill-rule="nonzero" stroke="none" stroke-width="1" stroke-linecap="butt" stroke-linejoin="miter" stroke-miterlimit="10" stroke-dasharray="" stroke-dashoffset="0" font-family="none" font-weight="none" font-size="none" text-anchor="none" style="mix-blend-mode: normal"><g transform="scale(2.56,2.56)"><path d="M20.74414,2c-0.29699,0.00417 -0.57676,0.14013 -0.76354,0.37107c-0.18679,0.23093 -0.26126,0.53294 -0.20325,0.82424l4.36719,21.84375l-19.97266,-3.47461c-0.4016,-0.07022 -0.80563,0.11036 -1.02117,0.45643c-0.21554,0.34606 -0.19943,0.78832 0.0407,1.11779l14.05469,19.32422l-11.6582,3.33008c-0.34058,0.09721 -0.60434,0.3673 -0.69344,0.71008c-0.08911,0.34278 0.00973,0.70713 0.25985,0.95789l12.2168,12.2168l-10.24805,7.6875c-0.30383,0.22801 -0.45226,0.60846 -0.38311,0.98198c0.06916,0.37352 0.34396,0.67562 0.70928,0.77973l11.83008,3.38086l-4.98633,9.14258c-0.18045,0.3295 -0.16101,0.73234 0.05031,1.04295c0.21133,0.31061 0.5789,0.47658 0.95164,0.42971l13.08594,-1.63672c0.41239,1.02564 0.86863,2.00153 1.38086,2.91016c3.90232,6.92225 11.41857,10.60352 18.70508,10.60352c6.71091,0 13.31471,-3.21299 16.60352,-9.89844l6.63867,1.7207c0.32368,0.08361 0.66773,-0.00003 0.91689,-0.22291c0.24917,-0.22288 0.3705,-0.55551 0.32334,-0.88647l-0.78125,-5.46094l11.03906,-0.84961c0.33145,-0.02612 0.62825,-0.21524 0.79193,-0.50463c0.16369,-0.28939 0.17286,-0.6412 0.02447,-0.93873l-5.12109,-10.24414l9.29492,-4.22461c0.32768,-0.14885 0.55011,-0.46228 0.58244,-0.82073c0.03233,-0.35845 -0.13043,-0.70662 -0.42619,-0.9117l-10.74805,-7.44141l14.37109,-7.60937c0.3379,-0.17907 0.5441,-0.53516 0.53122,-0.91736c-0.01288,-0.3822 -0.24258,-0.7236 -0.59177,-0.87952l-15.85156,-7.04687l8.91406,-20.50195c0.15018,-0.34602 0.0929,-0.74709 -0.14814,-1.03724c-0.24103,-0.29014 -0.6248,-0.42 -0.99249,-0.33581l-23.09375,5.33203l-1.75391,-18.41602c-0.03696,-0.38551 -0.29316,-0.71502 -0.65766,-0.84586c-0.3645,-0.13084 -0.77178,-0.03947 -1.04546,0.23453l-14.31445,14.31445l-21.66016,-14.43945c-0.16813,-0.11213 -0.36629,-0.17069 -0.56836,-0.16797zM22.21094,5.17188l20.33398,13.55469c0.39663,0.26431 0.92466,0.212 1.26172,-0.125l13.39453,-13.39453l1.66016,17.4375c0.02751,0.28678 0.17736,0.54776 0.41117,0.7161c0.2338,0.16834 0.52884,0.22767 0.80954,0.16281l22.27149,-5.14063l-8.51953,19.59375c-0.21877,0.50379 0.00968,1.08974 0.51172,1.3125l14.87891,6.61133l-14.00977,7.41797c-0.30819,0.16349 -0.50891,0.47576 -0.52965,0.82402c-0.02074,0.34825 0.14149,0.68214 0.42809,0.88106l10.65234,7.375l-8.63477,3.92578c-0.2472,0.11246 -0.43804,0.32061 -0.52865,0.57662c-0.09062,0.25601 -0.07322,0.53787 0.04819,0.7808l4.91992,9.83984l-10.61914,0.81836c-0.27588,0.02102 -0.53072,0.15539 -0.70392,0.37115c-0.1732,0.21576 -0.24928,0.49363 -0.21014,0.76752l0.71875,5.03125l-4.88281,-1.26758c0.70369,-1.90976 1.29975,-3.84349 1.80078,-5.78711c0.56039,-2.17387 0.99289,-4.35967 1.33398,-6.54102c3.37966,-0.49116 5.99219,-3.40292 5.99219,-6.91406c0,-3.15828 -2.10908,-5.83108 -4.99609,-6.69531c-0.00005,-0.02407 0.00006,-0.04821 0,-0.07227c-0.00227,-0.91886 -0.01789,-1.82879 -0.04297,-2.72852c-0.00024,-0.00855 0.00024,-0.01684 0,-0.02539c-0.0253,-0.90067 -0.06243,-1.79167 -0.10742,-2.66992c-0.04544,-0.8871 -0.09981,-1.7621 -0.16211,-2.62305c-0.24907,-3.44193 -0.61891,-6.66108 -1.00781,-9.55273c-0.64056,-4.7621 -2.94498,-8.79738 -6.17578,-11.88281c-0.46111,-0.44042 -0.94079,-0.86265 -1.4375,-1.26367c-0.00041,-0.00033 -0.00155,0.00033 -0.00195,0c-0.49671,-0.40097 -1.0091,-0.78232 -1.53711,-1.14258c-0.00046,-0.00031 -0.0015,0.00031 -0.00195,0c-0.52801,-0.36021 -1.06998,-0.70134 -1.625,-1.01953c-0.0005,-0.00029 -0.00145,0.00029 -0.00195,0c-0.55502,-0.31814 -1.12343,-0.6158 -1.70117,-0.89062c-0.00054,-0.00026 -0.00141,0.00026 -0.00195,0c-0.57774,-0.27477 -1.16556,-0.52767 -1.76172,-0.75781c-0.00057,-0.00022 -0.00138,0.00022 -0.00195,0c-0.59616,-0.23009 -1.20026,-0.43889 -1.81055,-0.62305c-0.00061,-0.00018 -0.00135,0.00018 -0.00195,0c-0.61028,-0.1841 -1.22558,-0.34361 -1.8457,-0.48047c-0.00063,-0.00014 -0.00133,0.00014 -0.00195,0c-0.62012,-0.13681 -1.24348,-0.25159 -1.86914,-0.33984c-0.00064,-0.00009 -0.00131,0.00009 -0.00195,0c-0.62566,-0.0882 -1.25395,-0.15112 -1.88086,-0.18945c-0.00065,-0.00004 -0.0013,0.00004 -0.00195,0c-5.02043,-0.30659 -10.0691,1.01531 -13.98437,4.36133c-1.95764,1.67301 -3.61538,3.84668 -4.84375,6.53711c-0.46064,1.00891 -0.86049,2.09071 -1.19336,3.24609c-0.55478,1.92564 -0.92336,4.05516 -1.07227,6.39453c-0.00423,0.03332 -0.13077,1.18084 -0.2793,2.74219c-0.04938,0.52092 -0.09097,0.9373 -0.14453,1.5918c-0.0542,0.65672 -0.0976,1.42694 -0.15039,2.20313c-0.06227,0.91775 -0.1227,1.78227 -0.17383,2.83984c-0.02431,0.49827 -0.04812,0.96953 -0.06836,1.49414c-0.01039,0.27095 -0.01825,0.54492 -0.02734,0.82227c-0.02273,0.68772 -0.04145,1.38103 -0.05469,2.10352c-0.00189,0.10422 -0.00615,0.19982 -0.00781,0.30469c-0.00286,0.18013 0.00017,0.37089 -0.00195,0.55273c-0.00433,0.35586 -0.01215,0.70412 -0.01367,1.06641c-2.8923,0.86063 -5.00586,3.53534 -5.00586,6.69727c0,3.442 2.50928,6.30872 5.79297,6.88281c0.41217,3.04259 1.00987,5.9964 1.89063,8.67578l-10.70117,1.33789l4.65234,-8.52734c0.1458,-0.26679 0.16232,-0.58541 0.0449,-0.86585c-0.11742,-0.28044 -0.35603,-0.49224 -0.64842,-0.57556l-11.0957,-3.16992l9.55859,-7.16992c0.23217,-0.1739 0.37739,-0.44004 0.398,-0.72938c0.02061,-0.28934 -0.08541,-0.57338 -0.29058,-0.77843l-11.83203,-11.83203l11.40039,-3.25586c0.31349,-0.09004 0.56338,-0.32729 0.66955,-0.63569c0.10617,-0.3084 0.05528,-0.6492 -0.13635,-0.91314l-13.44141,-18.48437l18.97852,3.30078c0.32513,0.05667 0.65729,-0.05072 0.88771,-0.287c0.23042,-0.23628 0.32944,-0.57103 0.26463,-0.89464zM26.23242,10.70703c-0.14947,0.00634 -0.28825,0.07926 -0.37825,0.19876c-0.09,0.1195 -0.12177,0.27302 -0.0866,0.41843l0.63281,2.74609c0.03561,0.17842 0.16532,0.32342 0.33869,0.37861c0.17337,0.05519 0.36303,0.01186 0.49524,-0.11314c0.1322,-0.125 0.18608,-0.31194 0.14068,-0.48813l-0.63281,-2.74609c-0.05118,-0.2381 -0.26644,-0.4047 -0.50977,-0.39453zM27.56836,16.51563c-0.1499,0.00621 -0.2891,0.07941 -0.37918,0.19939c-0.09008,0.11998 -0.12153,0.27407 -0.08567,0.41975l1.59961,6.95703c0.06202,0.26913 0.33048,0.43702 0.59961,0.375c0.26913,-0.06202 0.43702,-0.33048 0.375,-0.59961l-1.59961,-6.95703c-0.05118,-0.2381 -0.26644,-0.4047 -0.50977,-0.39453zM45.18359,23.00391c0.56941,-0.01186 1.14282,0.0001 1.7168,0.03516c3.44387,0.21031 6.90372,1.25938 9.95313,3.00391c0.0005,0.00029 0.00145,-0.00029 0.00195,0c0.50773,0.29051 1.00335,0.60126 1.48633,0.92969c0.00046,0.00031 0.0015,-0.00031 0.00195,0c0.48297,0.32848 0.95199,0.67595 1.40625,1.04102c0.00041,0.00033 0.00155,-0.00033 0.00195,0c0.45426,0.36512 0.89285,0.74999 1.31445,1.15039c0.84391,0.80147 1.61927,1.67255 2.30859,2.60742c1.7233,2.33718 2.91327,5.07379 3.32422,8.12891c0.67433,5.01067 1.28181,10.98898 1.29492,17.36523c0.00093,0.45448 -0.01033,0.91669 -0.01562,1.375c-0.00788,0.67311 -0.02029,1.34916 -0.04297,2.0293c-0.00899,0.27506 -0.0217,0.55205 -0.0332,0.82813c-0.00038,0.00913 -0.00157,0.01821 -0.00195,0.02734c-0.02932,0.68574 -0.06358,1.37339 -0.10937,2.06445c-0.001,0.01503 -0.00095,0.02989 -0.00195,0.04492c-0.0068,0.10338 -0.01625,0.20707 -0.02344,0.31055c-0.00718,0.10348 -0.01587,0.20697 -0.02344,0.31055c-0.06153,0.83022 -0.13326,1.66275 -0.2207,2.49805c-0.00877,0.08459 -0.01829,0.16928 -0.02734,0.25391c-0.09748,0.90344 -0.20958,1.80834 -0.33984,2.71484c-0.62096,4.33652 -1.62252,8.68747 -3.17969,12.89648c-0.10765,0.29118 -0.23762,0.58624 -0.37695,0.9043c-0.00483,0.01292 -0.00938,0.02595 -0.01367,0.03906c-2.82282,6.45629 -8.8087,9.4375 -15.11719,9.4375c-6.61074,0 -13.45321,-3.36018 -16.96289,-9.58594c-0.60595,-1.07488 -1.13204,-2.28313 -1.5957,-3.58008c-0.08895,-0.24686 -0.17381,-0.49837 -0.25781,-0.75195c-0.07763,-0.23598 -0.15301,-0.47337 -0.22656,-0.71484c-0.06457,-0.21067 -0.12801,-0.42407 -0.18945,-0.63867c-0.09076,-0.31874 -0.17946,-0.64192 -0.26367,-0.96875c-0.03614,-0.13969 -0.07248,-0.27885 -0.10742,-0.41992c-0.10531,-0.42661 -0.20591,-0.85865 -0.30078,-1.29687c-0.01372,-0.06325 -0.02752,-0.12598 -0.04102,-0.18945c-0.05561,-0.26188 -0.10615,-0.52945 -0.1582,-0.79492c-0.16072,-0.81959 -0.30762,-1.65071 -0.43555,-2.49805c-0.16676,-1.10026 -0.30849,-2.21944 -0.42578,-3.34766c-0.04793,-0.46544 -0.07702,-0.9347 -0.11719,-1.40234c-0.05236,-0.60247 -0.11014,-1.20338 -0.15039,-1.80664c-0.05615,-0.85343 -0.09468,-1.70338 -0.12891,-2.55078c-0.00924,-0.22555 -0.02348,-0.45303 -0.03125,-0.67773c-0.03024,-0.88574 -0.04685,-1.76067 -0.05664,-2.62695c-0.0021,-0.19076 -0.00666,-0.38473 -0.00781,-0.57422c-0.00526,-0.79594 0.00056,-1.57304 0.00977,-2.3418c0.00341,-0.27432 0.00479,-0.55213 0.00977,-0.82227c0.01319,-0.72704 0.03172,-1.43508 0.05469,-2.12695c0.00843,-0.25147 0.01783,-0.5038 0.02734,-0.75c0.02038,-0.5314 0.04374,-1.03666 0.06836,-1.54102c0.04994,-1.01312 0.1117,-1.87692 0.17187,-2.75977c0.05144,-0.7568 0.09951,-1.58816 0.15234,-2.23047c0.06042,-0.72816 0.11407,-1.27276 0.16797,-1.82617c0.04203,-0.43219 0.09149,-1.01422 0.125,-1.32617c0.00294,-0.02736 0.00105,-0.01854 0.00391,-0.04492c0.06971,-0.64395 0.11914,-1.0332 0.11914,-1.0332c0.00261,-0.02077 0.00456,-0.04161 0.00586,-0.0625c0.39376,-6.18626 2.35349,-10.5968 5.16016,-13.58789c0.40065,-0.4269 0.8169,-0.82518 1.25,-1.19531c3.03421,-2.59305 6.86181,-3.83883 10.84766,-3.92187zM12.68359,27.04688c-0.18556,0.01252 -0.34885,0.12698 -0.42389,0.29716c-0.07504,0.17017 -0.04944,0.36794 0.06647,0.51339l5.13086,6.69922c0.1083,0.14326 0.28511,0.21744 0.46321,0.19434c0.1781,-0.0231 0.33013,-0.13993 0.3983,-0.30608c0.06817,-0.16615 0.04201,-0.3561 -0.06854,-0.49763l-5.13086,-6.69922c-0.09093,-0.12214 -0.23257,-0.1962 -0.38477,-0.20117c-0.01692,-0.00086 -0.03386,-0.00086 -0.05078,0zM53.49609,28.99805c-0.04504,0.00115 -0.08971,0.00837 -0.13281,0.02148c-1.10862,0.31661 -2.24684,0.55797 -3.375,0.73828c-0.18328,0.02039 -0.34046,0.14 -0.40897,0.31121c-0.06851,0.17121 -0.03723,0.36623 0.08139,0.50743c0.11862,0.1412 0.30532,0.20565 0.48579,0.16769c1.16184,-0.18569 2.33685,-0.43428 3.49023,-0.76367c0.2434,-0.06633 0.39927,-0.30358 0.36353,-0.55331c-0.03575,-0.24973 -0.25192,-0.43373 -0.50415,-0.42911zM38.46289,30c-0.25908,0.01566 -0.46311,0.22693 -0.46972,0.4864c-0.00661,0.25947 0.18639,0.48086 0.44433,0.5097c0,0 3.83392,0.47931 8.53125,0.11914c0.18417,-0.00542 0.35043,-0.11168 0.4327,-0.27654c0.08227,-0.16486 0.06723,-0.3616 -0.03916,-0.51203c-0.10638,-0.15043 -0.28687,-0.23017 -0.46972,-0.20753c-4.58867,0.35183 -8.33008,-0.11523 -8.33008,-0.11523c-0.03299,-0.00462 -0.06636,-0.00593 -0.09961,-0.00391zM57.30664,34.89063c-2.0213,0.02596 -4.21043,0.26427 -6.54492,0.50977c-5.10843,0.53594 -10.84258,1.13327 -17.38086,0.12891h-0.00195c-1.35296,-0.21393 -2.6391,0.72966 -2.84961,2.08984c-0.20908,1.35904 0.73089,2.64249 2.08984,2.85156c2.8423,0.43751 5.55844,0.59766 8.11719,0.59766c3.91882,0 7.47018,-0.37434 10.54492,-0.69531c0.00065,0 0.0013,0 0.00195,0c4.18093,-0.43999 7.77137,-0.77191 9.87109,-0.01758c1.29333,0.46306 2.73182,-0.21673 3.19727,-1.50977c0.46559,-1.29345 -0.21388,-2.73195 -1.50781,-3.19727c-1.66282,-0.59811 -3.51581,-0.78377 -5.53711,-0.75781zM57.3125,35.9043c1.9517,-0.02454 3.69518,0.14666 5.19336,0.68555c0.78607,0.28268 1.18671,1.13342 0.9043,1.91797c-0.28256,0.78496 -1.1333,1.18719 -1.91797,0.90625c-2.50428,-0.89967 -6.13338,-0.47516 -10.31445,-0.03516c-3.07525,0.32103 -6.58622,0.68945 -10.44141,0.68945c-2.51725,0 -5.18114,-0.15745 -7.96484,-0.58594c-0.82505,-0.12693 -1.38082,-0.88598 -1.25391,-1.71094c0.12823,-0.82216 0.89732,-1.38262 1.70703,-1.25391c0.00065,0 0.0013,0 0.00195,0c6.68486,1.02719 12.52964,0.41296 17.63867,-0.12305c0.00065,0 0.0013,0 0.00195,0c2.3345,-0.2455 4.49361,-0.4657 6.44531,-0.49023zM19.82813,36.37305c-0.18519,0.01235 -0.34831,0.12625 -0.42369,0.29585c-0.07538,0.1696 -0.05062,0.36701 0.06431,0.51274l2.04883,2.67578c0.16827,0.21951 0.48264,0.26105 0.70215,0.09277c0.21951,-0.16827 0.26105,-0.48264 0.09277,-0.70215l-2.04883,-2.67383c-0.10143,-0.13687 -0.26557,-0.21269 -0.43555,-0.20117zM34.23438,42.84375c-0.09593,-0.00118 -0.19017,0.02526 -0.27148,0.07617c-2.29214,1.39998 -3.84412,3.88984 -3.94727,6.74609c-0.0018,0.06249 0.00814,0.12476 0.0293,0.18359c-0.07392,0.8338 -0.03225,1.70247 0.16797,2.5918c0.70777,3.14068 3.27097,5.61997 6.43555,6.2168c0.00065,0 0.0013,0 0.00195,0c5.235,0.98621 9.84961,-3.02324 9.84961,-8.09766c0,-0.42555 -0.05059,-0.82906 -0.11523,-1.22266c0.0512,-0.09144 0.07238,-0.19665 0.06055,-0.30078c-0.2703,-2.39868 -1.56706,-4.48541 -3.44141,-5.81055c-0.22544,-0.15964 -0.53762,-0.1063 -0.69727,0.11914c-0.15964,0.22544 -0.1063,0.53762 0.11914,0.69727c1.4565,1.02972 2.41489,2.62523 2.80273,4.42969c-2.17268,-0.36087 -4.35149,-0.5142 -6.53516,-0.45898c-0.06409,-0.00872 -0.12868,-0.01329 -0.19336,-0.01367c-0.07591,0.00077 -0.15164,0.0073 -0.22656,0.01953c-0.02411,0.0009 -0.04815,-0.00095 -0.07227,0c-2.32492,0.09175 -4.65496,0.42998 -6.98828,0.98828c0.30353,-2.19863 1.45979,-4.12783 3.27148,-5.23437c0.19248,-0.11459 0.28527,-0.3432 0.2271,-0.55953c-0.05817,-0.21632 -0.25311,-0.36757 -0.4771,-0.37016zM53.23438,42.84375c-0.09593,-0.00118 -0.19017,0.02526 -0.27148,0.07617c-2.29214,1.39998 -3.84412,3.88984 -3.94727,6.74609c-0.0018,0.06249 0.00814,0.12476 0.0293,0.18359c-0.07392,0.8338 -0.03225,1.70247 0.16797,2.5918c0.70777,3.14068 3.27097,5.61997 6.43555,6.2168c0.00065,0 0.0013,0 0.00195,0c5.235,0.98621 9.84961,-3.02324 9.84961,-8.09766c0,-0.42555 -0.05059,-0.82906 -0.11523,-1.22266c0.0512,-0.09144 0.07238,-0.19665 0.06055,-0.30078c-0.2703,-2.39868 -1.56706,-4.48541 -3.44141,-5.81055c-0.22544,-0.15964 -0.53762,-0.1063 -0.69727,0.11914c-0.15964,0.22544 -0.1063,0.53762 0.11914,0.69727c1.4565,1.02972 2.41489,2.62523 2.80273,4.42969c-2.17268,-0.36087 -4.35149,-0.5142 -6.53516,-0.45898c-0.06409,-0.00872 -0.12868,-0.01329 -0.19336,-0.01367c-0.07591,0.00077 -0.15164,0.0073 -0.22656,0.01953c-0.02411,0.0009 -0.04815,-0.00095 -0.07227,0c-2.32492,0.09175 -4.65496,0.42998 -6.98828,0.98828c0.30353,-2.19863 1.45979,-4.12783 3.27148,-5.23437c0.19248,-0.11459 0.28527,-0.3432 0.2271,-0.55953c-0.05817,-0.21632 -0.25311,-0.36757 -0.4771,-0.37016zM40.03125,49.00195c1.78933,0.03635 3.57433,0.22694 5.35742,0.54102c0.05349,0.33772 0.11133,0.67517 0.11133,1.01758c0,4.47158 -4.01707,7.99103 -8.66602,7.11523c-2.76342,-0.52117 -5.02826,-2.71176 -5.64648,-5.45508c-0.16472,-0.73165 -0.15868,-1.43199 -0.11133,-2.12109c1.99837,-0.49984 3.99112,-0.84199 5.97852,-1c-0.12506,0.45151 -0.03197,0.93551 0.25164,1.30842c0.28361,0.37291 0.72517,0.59189 1.19367,0.59197c0.48595,-0.00049 0.94155,-0.23637 1.22246,-0.63291c0.28091,-0.39653 0.35232,-0.90458 0.1916,-1.36319c0.03903,0.00064 0.07816,-0.00275 0.11719,-0.00195zM59.03125,49.00195c1.78933,0.03635 3.57433,0.22694 5.35742,0.54102c0.05349,0.33772 0.11133,0.67517 0.11133,1.01758c0,4.47158 -4.01707,7.99103 -8.66602,7.11523c-2.76342,-0.52117 -5.02826,-2.71176 -5.64648,-5.45508c-0.16472,-0.73165 -0.15868,-1.43199 -0.11133,-2.12109c1.99837,-0.49984 3.99112,-0.84199 5.97852,-1c-0.12506,0.45151 -0.03197,0.93551 0.25164,1.30842c0.28361,0.37291 0.72517,0.59189 1.19367,0.59197c0.48595,-0.00049 0.94155,-0.23637 1.22246,-0.63291c0.28091,-0.39653 0.35232,-0.90458 0.1916,-1.36319c0.03903,0.00064 0.07816,-0.00275 0.11719,-0.00195zM44.49219,58.99219c-0.13261,0.00207 -0.25896,0.05673 -0.35127,0.15197c-0.0923,0.09523 -0.14299,0.22324 -0.14092,0.35584v6c0,1.33333 0.33211,2.38161 0.88086,3.11328c0.54875,0.73167 1.32747,1.13672 2.11914,1.13672c0.79167,0 1.57039,-0.40505 2.11914,-1.13672c0.54875,-0.73167 0.88086,-1.77995 0.88086,-3.11328v-6c0.00255,-0.18032 -0.09219,-0.34804 -0.24794,-0.43894c-0.15575,-0.0909 -0.34838,-0.0909 -0.50413,0c-0.15575,0.0909 -0.25049,0.25863 -0.24794,0.43894v6c0,1.16667 -0.29289,1.99339 -0.68164,2.51172c-0.38875,0.51833 -0.86003,0.73828 -1.31836,0.73828c-0.45833,0 -0.92961,-0.21995 -1.31836,-0.73828c-0.38875,-0.51833 -0.68164,-1.34505 -0.68164,-2.51172v-6c0.00212,-0.13532 -0.0507,-0.26572 -0.1464,-0.36141c-0.0957,-0.0957 -0.22609,-0.14852 -0.36141,-0.1464zM25.02148,59.49219c0.03631,2.98656 0.1719,6.09611 0.49414,9.17969c-2.02224,-0.63689 -3.51562,-2.43141 -3.51562,-4.67187c0,-2.05438 1.26065,-3.73892 3.02148,-4.50781zM69.97656,59.49609c1.76078,0.76861 3.02344,2.44965 3.02344,4.50391c0,2.29755 -1.56691,4.1234 -3.66992,4.71094c0.00115,-0.00911 0.0008,-0.01823 0.00195,-0.02734c0.24379,-1.93172 0.41397,-3.8536 0.52148,-5.75391c0.00074,-0.01311 0.00122,-0.02595 0.00195,-0.03906c0.01051,-0.18673 0.01411,-0.37035 0.02344,-0.55664c0.03836,-0.76829 0.07247,-1.53522 0.0918,-2.29492c0.00181,-0.07092 0.0003,-0.1401 0.00195,-0.21094c0.00259,-0.11144 0.0017,-0.2208 0.00391,-0.33203zM31.80859,59.69727c-0.20381,0.01027 -0.38093,0.14335 -0.44752,0.33624c-0.06659,0.19289 -0.00929,0.4069 0.14478,0.54071c0,0 3.92558,3.49227 9.17969,1.39063c0.16609,-0.06627 0.28421,-0.21613 0.30985,-0.39311c0.02564,-0.17698 -0.0451,-0.3542 -0.18556,-0.46488c-0.14046,-0.11068 -0.3293,-0.13801 -0.49538,-0.0717c-4.7459,1.89836 -8.14062,-1.20508 -8.14062,-1.20508c-0.09886,-0.0917 -0.23056,-0.1396 -0.36523,-0.13281zM62.51563,59.69727c-0.12933,-0.00261 -0.25464,0.04499 -0.34961,0.13281c0,0 -3.39473,3.10344 -8.14062,1.20508c-0.16608,-0.06632 -0.35492,-0.03898 -0.49538,0.0717c-0.14046,0.11068 -0.2112,0.2879 -0.18556,0.46488c0.02564,0.17698 0.14375,0.32684 0.30985,0.39311c5.2541,2.10164 9.17969,-1.39062 9.17969,-1.39062c0.15581,-0.13576 0.21205,-0.35339 0.14153,-0.54764c-0.07052,-0.19425 -0.25327,-0.32512 -0.45989,-0.32931zM46.875,76.7793c-6.76367,0.0705 -11.58203,2.26563 -11.58203,2.26563c-0.16611,0.07175 -0.28049,0.22764 -0.29911,0.40762c-0.01861,0.17998 0.06145,0.35597 0.20936,0.4602c0.14791,0.10422 0.34058,0.12042 0.50381,0.04234c0,0 10.81094,-4.90694 22.60156,0.00586c0.16707,0.08179 0.36573,0.06408 0.5157,-0.04597c0.14997,-0.11005 0.22646,-0.29425 0.19856,-0.47816c-0.0279,-0.18391 -0.15559,-0.33714 -0.33145,-0.39775c-3.05234,-1.27181 -6.04065,-1.90861 -8.80664,-2.14648c-1.03725,-0.0892 -2.04353,-0.12335 -3.00977,-0.11328z"></path></g></g></svg>