<svg xmlns="http://www.w3.org/2000/svg" xmlns:xlink="http://www.w3.org/1999/xlink" viewBox="0,0,256,256" width="400px" height="400px" fill-rule="nonzero"><g fill="#ffffff" fill-rule="nonzero" stroke="none" stroke-width="1" stroke-linecap="butt" stroke-linejoin="miter" stroke-miterlimit="10" stroke-dasharray="" stroke-dashoffset="0" font-family="none" font-weight="none" font-size="none" text-anchor="none" style="mix-blend-mode: normal"><g transform="scale(2.56,2.56)"><path d="M52.39453,9.89844c-0.8116,0.00618 -1.63528,0.04121 -2.4707,0.10547c-6.35701,0.489 -12.21292,1.49351 -17.17773,3.69531c-4.96481,2.2018 -9.03464,5.64154 -11.64062,10.85352c-2.12706,4.25317 -9.21412,13.06966 -7.08203,22.66406c0.5592,2.51514 1.38303,4.77651 2.42773,6.82227c-2.64938,1.44009 -4.45117,4.24241 -4.45117,7.46094c0,4.61263 3.70641,8.37868 8.29297,8.49023c5.25599,11.24414 16.32772,19.00977 29.70703,19.00977c13.27843,0 24.3097,-7.1636 29.60938,-18.00586c4.63185,-0.05953 8.39063,-3.84858 8.39063,-8.49414c0,-3.44837 -2.06584,-6.42176 -5.0293,-7.75c-0.00414,-0.11957 -0.00447,-0.24003 -0.00977,-0.35937c0.75865,-1.55288 1.42403,-3.24334 1.99414,-5.0957c1.11026,-3.60834 0.58312,-8.69508 -0.54297,-13.53125c-1.12609,-4.83617 -2.84334,-9.33467 -4.61133,-11.74805c-5.37797,-7.3412 -13.98532,-13.35178 -25.00781,-14.05078c-0.78732,-0.04993 -1.58684,-0.07259 -2.39844,-0.06641zM52.41016,11.89648c0.76644,-0.00572 1.52135,0.01599 2.26367,0.0625c10.39247,0.65121 18.42664,6.29423 23.51367,13.23828c1.40701,1.92063 3.19223,6.36965 4.27539,11.02148c1.08316,4.65183 1.47177,9.59466 0.58203,12.48633c-0.15502,0.50369 -0.35539,0.91949 -0.53711,1.37109c-2.12887,-13.02167 -11.10907,-23.99229 -23.34375,-27.71289c-0.07567,-0.02317 -0.15064,-0.04771 -0.22656,-0.07031c-0.37142,-0.10986 -0.74581,-0.21223 -1.12305,-0.30859c-0.14785,-0.03801 -0.29657,-0.07349 -0.44531,-0.10937c-0.33025,-0.07919 -0.66164,-0.15593 -0.99609,-0.22461c-0.21681,-0.04478 -0.43572,-0.08473 -0.6543,-0.125c-0.28668,-0.05252 -0.57371,-0.10373 -0.86328,-0.14844c-0.26547,-0.0412 -0.53288,-0.07488 -0.80078,-0.10937c-0.26326,-0.03374 -0.52553,-0.07045 -0.79102,-0.09766c-0.29027,-0.02987 -0.58402,-0.04839 -0.87695,-0.07031c-0.25122,-0.01873 -0.50084,-0.0438 -0.75391,-0.05664c-0.54008,-0.02748 -1.08436,-0.04297 -1.63281,-0.04297c-0.56629,0 -1.1281,0.01538 -1.68555,0.04297c-0.18893,0.00931 -0.37459,0.0286 -0.5625,0.04102c-0.36651,0.02433 -0.73332,0.04598 -1.0957,0.08203c-0.26244,0.02597 -0.52097,0.0637 -0.78125,0.0957c-0.26803,0.03314 -0.53713,0.06206 -0.80273,0.10156c-0.32533,0.04809 -0.64706,0.10663 -0.96875,0.16406c-0.19676,0.03536 -0.39453,0.06859 -0.58984,0.10742c-0.36182,0.07146 -0.71927,0.15319 -1.07617,0.23633c-0.14332,0.03362 -0.2872,0.06606 -0.42969,0.10156c-0.40609,0.10044 -0.80771,0.20888 -1.20703,0.32422c-0.07558,0.022 -0.15123,0.04387 -0.22656,0.06641c-12.64119,3.7519 -21.77519,14.90386 -23.33008,28.5c-0.49996,-1.27454 -0.94134,-2.61277 -1.26758,-4.08008c-1.86791,-8.4056 4.52703,-16.55511 6.91797,-21.33594c2.39401,-4.78802 6.02617,-7.86397 10.66211,-9.91992c4.63594,-2.05595 10.27954,-3.05125 16.51953,-3.53125c0.78958,-0.06074 1.56755,-0.09389 2.33398,-0.09961zM50,23c0.54884,0 1.09255,0.0157 1.63281,0.04492c0.00258,0.00014 0.00523,-0.00014 0.00781,0c0.059,0.00321 0.11689,0.01012 0.17578,0.01367c0.4665,0.02813 0.93097,0.06389 1.39063,0.11328c0.2074,0.02228 0.41124,0.0555 0.61719,0.08203c0.31333,0.04038 0.62761,0.07686 0.9375,0.12695c0.19843,0.03207 0.39286,0.07338 0.58984,0.10938c0.32596,0.05957 0.65273,0.11928 0.97461,0.18945c0.16599,0.0362 0.32926,0.08016 0.49414,0.11914c0.33144,0.07834 0.6634,0.15668 0.99023,0.24609c0.20761,0.05681 0.41149,0.12044 0.61719,0.18164c0.28174,0.08381 0.56373,0.16587 0.8418,0.25781c0.22528,0.0745 0.44711,0.15657 0.66992,0.23633c0.25298,0.09053 0.50613,0.18014 0.75586,0.27734c0.23721,0.09234 0.47087,0.19276 0.70508,0.29102c0.22464,0.09423 0.45006,0.18752 0.67188,0.28711c0.25578,0.11486 0.50782,0.23556 0.75977,0.35742c0.2,0.09671 0.40013,0.19387 0.59766,0.29492c0.23655,0.12105 0.47019,0.24782 0.70312,0.375c0.21781,0.11889 0.43581,0.23718 0.65039,0.36133c0.21316,0.12335 0.4229,0.2524 0.63281,0.38086c0.21293,0.13027 0.42524,0.26105 0.63477,0.39648c0.23032,0.1489 0.45747,0.30201 0.68359,0.45703c0.17473,0.11976 0.3493,0.23993 0.52148,0.36328c0.24321,0.17428 0.48267,0.35385 0.7207,0.53516c0.16251,0.12374 0.32432,0.24804 0.48438,0.375c0.22079,0.17519 0.43826,0.35397 0.6543,0.53516c0.17436,0.14619 0.34832,0.29334 0.51953,0.44336c0.20401,0.17882 0.40601,0.36077 0.60547,0.54492c0.16353,0.15094 0.3259,0.30259 0.48633,0.45703c0.21075,0.20297 0.41776,0.40829 0.62305,0.61719c0.14487,0.14736 0.28758,0.29702 0.42969,0.44727c0.19639,0.20772 0.39101,0.41774 0.58203,0.63086c0.14622,0.16307 0.29056,0.32798 0.43359,0.49414c0.1908,0.22174 0.37942,0.44671 0.56445,0.67383c0.12449,0.15276 0.24729,0.30775 0.36914,0.46289c0.19598,0.24962 0.38911,0.50023 0.57813,0.75586c0.09846,0.1331 0.19447,0.26765 0.29102,0.40234c0.20301,0.28335 0.40324,0.56917 0.59766,0.85938c0.08166,0.12184 0.16012,0.24612 0.24023,0.36914c0.19516,0.29978 0.38831,0.60161 0.57422,0.9082c0.07336,0.12094 0.14489,0.24326 0.2168,0.36523c0.18721,0.3177 0.37166,0.63643 0.54883,0.96094c0.06176,0.11308 0.12111,0.22791 0.18164,0.3418c0.18031,0.33939 0.35815,0.68103 0.52734,1.02734c0.04723,0.09663 0.09037,0.19582 0.13672,0.29297c0.17548,0.36798 0.34897,0.73803 0.51172,1.11328c0.02716,0.0626 0.05133,0.12666 0.07813,0.18945c0.17574,0.41193 0.34771,0.826 0.50781,1.24609c0.00147,0.00385 0.00244,0.00787 0.00391,0.01172c0.00886,0.02326 0.01658,0.04702 0.02539,0.07031c0.17142,0.45321 0.3335,0.90902 0.48633,1.37109c0.96409,2.91489 1.55473,6.00093 1.7168,9.17969c0.00059,0.00652 0.00124,0.01303 0.00195,0.01953c0.01933,0.38492 0.02653,0.77263 0.0332,1.16016c-0.00008,0.00716 -0.00008,0.01432 0,0.02148c0.00324,0.19489 0.01367,0.38849 0.01367,0.58398c0,0.00055 0,0.0014 0,0.00195c0,0.00525 0,0.01038 0,0.01563c-0.00026,0.58609 -0.0176,1.16645 -0.04687,1.74219c-0.0076,0.15096 -0.0217,0.29898 -0.03125,0.44922c-0.02761,0.4303 -0.05998,0.85912 -0.10352,1.2832c-0.01672,0.16443 -0.03953,0.32675 -0.05859,0.49023c-0.04928,0.41865 -0.10144,0.83587 -0.16602,1.24805c-0.0202,0.13015 -0.04275,0.25918 -0.06445,0.38867c-0.07748,0.45819 -0.16173,0.91359 -0.25781,1.36328c-0.01703,0.08041 -0.03512,0.1601 -0.05273,0.24023c-0.11564,0.52157 -0.24072,1.03935 -0.38086,1.54883c-0.45489,1.65373 -1.03744,3.24154 -1.73633,4.75586c-0.0256,0.05659 -0.04587,0.11543 -0.06055,0.17578c-4.86754,10.42577 -15.30638,17.26758 -28.04102,17.26758c-12.77854,0 -23.27244,-7.45699 -28.11328,-18.2793c-0.01311,-0.05007 -0.03009,-0.09904 -0.05078,-0.14648c-0.68069,-1.53815 -1.24911,-3.1429 -1.69336,-4.80273c-0.00384,-0.01434 -0.0079,-0.02862 -0.01172,-0.04297c-0.13632,-0.51208 -0.25663,-1.03049 -0.36914,-1.55273c-0.01407,-0.06583 -0.02928,-0.13128 -0.04297,-0.19727c-0.09593,-0.45876 -0.18067,-0.92263 -0.25781,-1.38867c-0.02009,-0.1225 -0.04176,-0.2442 -0.06055,-0.36719c-0.06815,-0.44202 -0.12291,-0.8879 -0.17383,-1.33594c-0.0146,-0.12978 -0.03372,-0.25841 -0.04687,-0.38867c-0.04295,-0.42115 -0.07216,-0.84741 -0.09961,-1.27344c-0.01048,-0.16441 -0.02699,-0.32709 -0.03516,-0.49219c-0.02869,-0.57388 -0.04492,-1.15063 -0.04492,-1.73242c0,-0.0544 0.00366,-0.10778 0.00391,-0.16211c0,-0.00065 0,-0.0013 0,-0.00195c0.00258,-0.55143 0.01878,-1.10018 0.04688,-1.64453c0.02803,-0.54305 0.06821,-1.08183 0.12109,-1.61719c0.00142,-0.01437 0.00247,-0.0286 0.00391,-0.04297c0.05209,-0.52068 0.11435,-1.03801 0.18945,-1.55078c0.00452,-0.03083 0.01103,-0.06099 0.01563,-0.0918c0.07458,-0.49958 0.15988,-0.99486 0.25586,-1.48633c0.20278,-1.03838 0.45295,-2.05836 0.74805,-3.05664c0.14755,-0.49914 0.30674,-0.99233 0.47656,-1.48047c0.16982,-0.48813 0.34947,-0.9708 0.54102,-1.44727c0.19155,-0.47647 0.39468,-0.94796 0.60742,-1.41211c0.20702,-0.45167 0.42381,-0.89654 0.65039,-1.33594c0.08425,-0.16332 0.17482,-0.32281 0.26172,-0.48437c0.15516,-0.28856 0.30914,-0.5785 0.47266,-0.86133c0.07385,-0.12774 0.15494,-0.25041 0.23047,-0.37695c0.18408,-0.3084 0.36856,-0.61683 0.5625,-0.91797c0.05274,-0.08189 0.10865,-0.16085 0.16211,-0.24219c0.22748,-0.34612 0.45694,-0.68942 0.69727,-1.02539c0.29156,-0.40759 0.59236,-0.80912 0.90234,-1.20117c0.01376,-0.0174 0.02917,-0.03341 0.04297,-0.05078c0.2961,-0.37285 0.59979,-0.73951 0.91211,-1.09766c0.06369,-0.07304 0.13095,-0.14243 0.19531,-0.21484c0.26197,-0.29476 0.52604,-0.5869 0.79883,-0.87109c0.13472,-0.14031 0.2748,-0.27444 0.41211,-0.41211c0.21853,-0.21917 0.43517,-0.43998 0.66016,-0.65234c0.08048,-0.07597 0.16479,-0.14757 0.24609,-0.22266c0.28969,-0.26755 0.58099,-0.53295 0.88086,-0.78906c0.37418,-0.31958 0.75692,-0.63043 1.14648,-0.93164c0.18736,-0.14487 0.38143,-0.28137 0.57227,-0.42187c0.2068,-0.15223 0.41029,-0.30805 0.62109,-0.45508c0.27882,-0.19447 0.56589,-0.37926 0.85156,-0.56445c0.13452,-0.08721 0.26633,-0.17856 0.40234,-0.26367c0.31073,-0.19444 0.62891,-0.37721 0.94727,-0.56055c0.11674,-0.06723 0.22991,-0.13937 0.34766,-0.20508c0.1726,-0.09633 0.35066,-0.18431 0.52539,-0.27734c0.27948,-0.14882 0.55696,-0.30114 0.8418,-0.44141c0.44117,-0.21725 0.88819,-0.42487 1.3418,-0.62109c0.00321,-0.00139 0.00656,-0.00252 0.00977,-0.00391c0.29938,-0.12936 0.60555,-0.2472 0.91016,-0.36719c0.17185,-0.06769 0.3402,-0.14237 0.51367,-0.20703c0.18382,-0.06852 0.37297,-0.12632 0.55859,-0.19141c0.30304,-0.10626 0.60438,-0.21553 0.91211,-0.3125c0.48263,-0.15209 0.9711,-0.29315 1.46484,-0.42187c0.00517,-0.00135 0.01045,-0.00256 0.01563,-0.00391c0.19388,-0.05044 0.39236,-0.08995 0.58789,-0.13672c0.31056,-0.07428 0.61897,-0.15189 0.93359,-0.2168c0.15917,-0.03284 0.32224,-0.05748 0.48242,-0.08789c0.35848,-0.06804 0.71663,-0.13764 1.08008,-0.19336c0.52304,-0.0802 1.0511,-0.14705 1.58398,-0.20117c1.06587,-0.10826 2.14999,-0.16406 3.25195,-0.16406zM37.66797,32.31641c-4.49672,0.0071 -7.42578,1.75391 -7.42578,1.75391c-0.15352,0.09211 -0.24623,0.25912 -0.24322,0.43812c0.00301,0.179 0.10129,0.3428 0.25781,0.42969c0.15653,0.08689 0.34752,0.08368 0.50103,-0.00843c0,0 4.79294,-2.89566 11.60547,-0.94922c0.17455,0.05829 0.36702,0.01599 0.50105,-0.11011c0.13403,-0.12611 0.18796,-0.31564 0.1404,-0.49342c-0.04756,-0.17778 -0.18892,-0.31507 -0.36801,-0.35741c-1.79687,-0.51339 -3.46984,-0.70549 -4.96875,-0.70312zM61.70703,32.33984c-0.34267,0.00234 -0.67573,0.01301 -0.99609,0.0293c-2.56291,0.13028 -4.34766,0.65039 -4.34766,0.65039c-0.17909,0.04234 -0.32045,0.17963 -0.36801,0.35741c-0.04756,0.17778 0.00637,0.36731 0.1404,0.49342c0.13403,0.12611 0.32649,0.1684 0.50105,0.11011c0,0 6.85926,-1.92388 12.64063,0.9668c0.16082,0.08854 0.35723,0.08183 0.51164,-0.01747c0.15441,-0.0993 0.24199,-0.27523 0.22815,-0.45829c-0.01384,-0.18306 -0.12689,-0.34382 -0.29448,-0.41877c-2.72065,-1.36032 -5.61697,-1.7293 -8.01562,-1.71289zM30.55469,38.52539c-0.09527,-0.0008 -0.18878,0.02562 -0.26953,0.07617c-0.70296,0.42953 -1.35403,0.93524 -1.94141,1.50586c-0.12842,0.12455 -0.18063,0.30815 -0.13696,0.48163c0.04367,0.17348 0.17658,0.31049 0.34866,0.3594c0.17208,0.04891 0.35718,0.0023 0.48557,-0.12228c0.53463,-0.51938 1.12659,-0.98062 1.76563,-1.37109c0.19277,-0.11478 0.2855,-0.34391 0.22681,-0.56045c-0.05869,-0.21654 -0.25441,-0.3675 -0.47876,-0.36924zM42.00586,38.91406c-0.21273,0.01433 -0.39298,0.16196 -0.44893,0.3677c-0.05595,0.20574 0.0247,0.42432 0.20088,0.54441c2.06191,1.45699 3.43252,3.72501 3.93164,6.29688c-3.22742,-0.49835 -6.46296,-0.6999 -9.70703,-0.58008c-3.27308,0.12089 -6.55341,0.56851 -9.83984,1.3125c0.15721,-1.38268 0.53801,-2.69653 1.20117,-3.84766c0.09797,-0.15501 0.10323,-0.35122 0.01371,-0.51126c-0.08952,-0.16004 -0.25946,-0.25825 -0.44283,-0.2559c-0.18336,0.00235 -0.35073,0.10488 -0.43612,0.26716c-0.8684,1.5074 -1.39198,3.24209 -1.45898,5.08984c-0.00074,0.0261 0.00057,0.05223 0.00391,0.07813c-0.01045,0.10086 -0.02344,0.18551 -0.02344,0.32422c0,6.06922 4.93078,11 11,11c6.06922,0 11,-4.93078 11,-11c0,-0.38123 -0.03797,-0.74209 -0.07812,-1.09961c0.00792,-0.04646 0.00924,-0.0938 0.00391,-0.14062c-0.35929,-3.19801 -2.09041,-5.98385 -4.58984,-7.75c-0.08134,-0.05928 -0.17869,-0.09264 -0.2793,-0.0957c-0.01692,-0.00086 -0.03387,-0.00086 -0.05078,0zM70.13086,39c-0.21143,0.01295 -0.39176,0.15771 -0.45013,0.36133c-0.05837,0.20363 0.0179,0.42193 0.19036,0.54492c1.9625,1.42916 3.27376,3.60507 3.79102,6.06641c-1.47883,-0.19732 -2.9594,-0.34484 -4.44141,-0.41211c-5.00733,-0.22729 -10.03366,0.29381 -15.07422,1.53711c0.07746,-0.92825 0.19933,-1.84542 0.51953,-2.67969c0.09924,-0.2578 -0.0293,-0.54725 -0.28711,-0.64648c-0.2578,-0.09924 -0.54725,0.0293 -0.64648,0.28711c-0.45694,1.19055 -0.71296,2.48116 -0.72656,3.82813c-0.00013,0.00651 -0.00013,0.01302 0,0.01953c-0.00308,0.03644 -0.00586,0.03958 -0.00586,0.09375c0,6.06922 4.93078,11 11,11c6.06922,0 11,-4.93078 11,-11c0,-0.51232 -0.03964,-1.01285 -0.10742,-1.50195c-0.00525,-0.03605 -0.01441,-0.07141 -0.02734,-0.10547c-0.43963,-2.9891 -2.07099,-5.59236 -4.40625,-7.29297c-0.09422,-0.07084 -0.21043,-0.10612 -0.32812,-0.09961zM57.53906,39.2207c-0.11246,0.00135 -0.22117,0.04057 -0.30859,0.11133c-0.84423,0.66093 -1.58888,1.44162 -2.20898,2.31836c-0.15964,0.22544 -0.1063,0.53762 0.11914,0.69727c0.22544,0.15964 0.53762,0.1063 0.69727,-0.11914c0.56389,-0.79726 1.24005,-1.50831 2.00781,-2.10937c0.17174,-0.13027 0.24068,-0.35593 0.17105,-0.55993c-0.06963,-0.204 -0.26214,-0.34043 -0.47769,-0.33851zM38.50391,46.51367c0.82769,0.0122 1.65587,0.04566 2.48242,0.09961c0.00457,0.00032 0.0091,0.00163 0.01367,0.00195c0.25531,0.01673 0.51041,0.04771 0.76563,0.06836c1.39415,0.12294 2.78641,0.30793 4.17773,0.56055c0.02541,0.25221 0.05664,0.50481 0.05664,0.75586c0,5.52878 -4.47122,10 -10,10c-5.52352,0 -9.9915,-4.46287 -10,-9.98437c2.34738,-0.59923 4.68935,-1.01848 7.02539,-1.26172c0.16526,-0.01626 0.33088,-0.04204 0.49609,-0.05664h0.00195c0.24691,-0.02181 0.49344,-0.0288 0.74023,-0.04687c-0.3155,0.45906 -0.35064,1.05514 -0.09126,1.54809c0.25938,0.49295 0.77056,0.80157 1.32759,0.80152c0.5835,-0.00015 1.11396,-0.33866 1.35988,-0.8678c0.24593,-0.52914 0.16268,-1.15287 -0.2134,-1.599c0.61953,-0.01474 1.23861,-0.02865 1.85742,-0.01953zM67.20508,46.51367c0.65653,0.00624 1.31294,0.01214 1.96875,0.04688h0.00195c1.58771,0.08417 3.17398,0.26015 4.75781,0.51172c0.03169,0.30709 0.06641,0.614 0.06641,0.92773c0,5.52878 -4.47122,10 -10,10c-5.43409,0 -9.80983,-4.33089 -9.95898,-9.72852c2.29269,-0.6319 4.57948,-1.09208 6.86133,-1.38477c0.78816,-0.09541 1.57623,-0.17788 2.36328,-0.23633c-0.3153,0.45877 -0.35061,1.05442 -0.09171,1.54723c0.2589,0.49281 0.76942,0.80171 1.32609,0.80238c0.5839,-0.00027 1.11459,-0.33935 1.36018,-0.86909c0.24559,-0.52974 0.16146,-1.15386 -0.21565,-1.59966c0.52006,-0.0138 1.04095,-0.02023 1.56055,-0.01758zM51.49414,55.99414c-0.20372,0.00004 -0.38705,0.12367 -0.46345,0.31252c-0.0764,0.18885 -0.03059,0.40518 0.1158,0.54685c0,0 1.21539,1.22303 2.04688,2.64844c0.41574,0.7127 0.72098,1.47125 0.75977,2.0918c0.03878,0.62055 -0.11381,1.07913 -0.73047,1.49023c-0.62733,0.41822 -1.26779,0.46916 -1.9668,0.30469c-0.699,-0.16447 -1.43195,-0.56734 -2.08594,-1.04297c-1.30797,-0.95125 -2.2793,-2.1582 -2.2793,-2.1582c-0.17259,-0.21574 -0.48739,-0.25071 -0.70312,-0.07812c-0.21574,0.17259 -0.25071,0.48739 -0.07812,0.70313c0,0 1.02867,1.29305 2.4707,2.3418c0.72102,0.52437 1.55056,0.9965 2.44531,1.20703c0.89475,0.21053 1.87928,0.13647 2.75195,-0.44531c0.88334,-0.5889 1.23075,-1.50532 1.17578,-2.38477c-0.05497,-0.87945 -0.43723,-1.74591 -0.89648,-2.5332c-0.91851,-1.57459 -2.20312,-2.85156 -2.20312,-2.85156c-0.09421,-0.09737 -0.22389,-0.15234 -0.35937,-0.15234zM17.02539,56.09375c0.12248,4.11293 0.93176,8.04223 2.32422,11.66602c-3.02654,-0.55528 -5.34961,-3.06773 -5.34961,-6.25977c0,-2.30166 1.22821,-4.25494 3.02539,-5.40625zM82.97461,57.0957c1.79683,1.15107 3.02539,3.10313 3.02539,5.4043c0,3.21395 -2.3507,5.74884 -5.4082,6.2793c1.43163,-3.58519 2.26098,-7.51618 2.38281,-11.68359zM51.28125,72.53125c-5.5982,0.04383 -9.9375,1.49414 -9.9375,1.49414c-0.17623,0.05047 -0.31072,0.19333 -0.35047,0.37228c-0.03975,0.17895 0.0216,0.36532 0.15989,0.48566c0.13829,0.12034 0.33134,0.15537 0.50308,0.09128c0,0 9.84158,-3.22176 18.67188,-0.00391c0.16817,0.06143 0.35634,0.02846 0.49361,-0.08647c0.13727,-0.11494 0.2028,-0.29438 0.17189,-0.47073c-0.03091,-0.17635 -0.15356,-0.32281 -0.32175,-0.3842c-2.31343,-0.84304 -4.67804,-1.26335 -6.92383,-1.42187c-0.84217,-0.05945 -1.66705,-0.08243 -2.4668,-0.07617z"></path></g></g></svg>